<mxfile host="app.diagrams.net" modified="2021-09-09T02:45:00.010Z" agent="5.0 (Windows NT 10.0; Win64; x64) AppleWebKit/537.36 (KHTML, like Gecko) Chrome/92.0.4515.159 Safari/537.36" etag="Qz8EOhcpRBKizAvxz3xS" version="15.1.0" type="github" pages="3">
  <diagram id="7rKh7lAbdLOgQBnY77Yu" name="Page-1">
    <mxGraphModel dx="1422" dy="705" grid="0" gridSize="10" guides="1" tooltips="1" connect="1" arrows="1" fold="1" page="1" pageScale="1" pageWidth="827" pageHeight="1169" math="0" shadow="0">
      <root>
        <mxCell id="0" />
        <mxCell id="1" parent="0" />
        <mxCell id="9J-VWc8yeZ40ZgeUyEYA-3" value="直播间" style="rounded=0;whiteSpace=wrap;html=1;" vertex="1" parent="1">
          <mxGeometry x="509" y="67" width="257" height="465" as="geometry" />
        </mxCell>
        <mxCell id="9J-VWc8yeZ40ZgeUyEYA-4" value="录播" style="rounded=0;whiteSpace=wrap;html=1;" vertex="1" parent="1">
          <mxGeometry x="677" y="145" width="89" height="113" as="geometry" />
        </mxCell>
        <mxCell id="9J-VWc8yeZ40ZgeUyEYA-7" style="edgeStyle=orthogonalEdgeStyle;rounded=0;orthogonalLoop=1;jettySize=auto;html=1;exitX=1;exitY=0.5;exitDx=0;exitDy=0;" edge="1" parent="1" source="9J-VWc8yeZ40ZgeUyEYA-6" target="9J-VWc8yeZ40ZgeUyEYA-3">
          <mxGeometry relative="1" as="geometry" />
        </mxCell>
        <mxCell id="9J-VWc8yeZ40ZgeUyEYA-6" value="跳转链接" style="rounded=0;whiteSpace=wrap;html=1;" vertex="1" parent="1">
          <mxGeometry x="106" y="269.5" width="90" height="60" as="geometry" />
        </mxCell>
        <mxCell id="9J-VWc8yeZ40ZgeUyEYA-8" value="转发时间参数" style="text;html=1;strokeColor=none;fillColor=none;align=center;verticalAlign=middle;whiteSpace=wrap;rounded=0;" vertex="1" parent="1">
          <mxGeometry x="292" y="273" width="99" height="20" as="geometry" />
        </mxCell>
        <mxCell id="9J-VWc8yeZ40ZgeUyEYA-9" value="滚动字幕" style="text;html=1;strokeColor=none;fillColor=none;align=center;verticalAlign=middle;whiteSpace=wrap;rounded=0;" vertex="1" parent="1">
          <mxGeometry x="693.5" y="236" width="56" height="20" as="geometry" />
        </mxCell>
      </root>
    </mxGraphModel>
  </diagram>
  <diagram id="NMhgwEgTSyAdgG-mtWfI" name="Page-2">
    <mxGraphModel dx="1422" dy="705" grid="0" gridSize="10" guides="1" tooltips="1" connect="1" arrows="1" fold="1" page="1" pageScale="1" pageWidth="827" pageHeight="1169" math="0" shadow="0">
      <root>
        <mxCell id="ZVQi9drShmnqVh7t_aaN-0" />
        <mxCell id="ZVQi9drShmnqVh7t_aaN-1" parent="ZVQi9drShmnqVh7t_aaN-0" />
        <mxCell id="hp_OeltAROhh2NiVcY4W-0" value="直播间" style="rounded=0;whiteSpace=wrap;html=1;" vertex="1" parent="ZVQi9drShmnqVh7t_aaN-1">
          <mxGeometry x="70" y="57" width="257" height="465" as="geometry" />
        </mxCell>
        <mxCell id="hp_OeltAROhh2NiVcY4W-1" value="录播" style="rounded=0;whiteSpace=wrap;html=1;" vertex="1" parent="ZVQi9drShmnqVh7t_aaN-1">
          <mxGeometry x="238" y="135" width="89" height="113" as="geometry" />
        </mxCell>
        <mxCell id="hp_OeltAROhh2NiVcY4W-6" style="edgeStyle=orthogonalEdgeStyle;rounded=0;orthogonalLoop=1;jettySize=auto;html=1;exitX=0.5;exitY=1;exitDx=0;exitDy=0;" edge="1" parent="ZVQi9drShmnqVh7t_aaN-1" target="hp_OeltAROhh2NiVcY4W-4">
          <mxGeometry relative="1" as="geometry">
            <mxPoint x="282.5" y="246" as="sourcePoint" />
            <Array as="points">
              <mxPoint x="283" y="274" />
              <mxPoint x="309" y="274" />
            </Array>
          </mxGeometry>
        </mxCell>
        <mxCell id="hp_OeltAROhh2NiVcY4W-4" value="球" style="ellipse;whiteSpace=wrap;html=1;aspect=fixed;" vertex="1" parent="ZVQi9drShmnqVh7t_aaN-1">
          <mxGeometry x="291" y="325" width="36" height="36" as="geometry" />
        </mxCell>
        <mxCell id="hp_OeltAROhh2NiVcY4W-7" value="" style="endArrow=none;html=1;exitX=0.022;exitY=0.885;exitDx=0;exitDy=0;exitPerimeter=0;entryX=0.989;entryY=0.894;entryDx=0;entryDy=0;entryPerimeter=0;" edge="1" parent="ZVQi9drShmnqVh7t_aaN-1" source="hp_OeltAROhh2NiVcY4W-1" target="hp_OeltAROhh2NiVcY4W-1">
          <mxGeometry width="50" height="50" relative="1" as="geometry">
            <mxPoint x="257.5" y="233" as="sourcePoint" />
            <mxPoint x="275" y="242" as="targetPoint" />
          </mxGeometry>
        </mxCell>
        <mxCell id="hp_OeltAROhh2NiVcY4W-8" value="" style="ellipse;whiteSpace=wrap;html=1;aspect=fixed;fillColor=#f8cecc;strokeColor=#b85450;" vertex="1" parent="ZVQi9drShmnqVh7t_aaN-1">
          <mxGeometry x="252" y="231" width="8" height="8" as="geometry" />
        </mxCell>
        <mxCell id="hp_OeltAROhh2NiVcY4W-11" value="" style="ellipse;whiteSpace=wrap;html=1;aspect=fixed;fillColor=#dae8fc;strokeColor=#6c8ebf;" vertex="1" parent="ZVQi9drShmnqVh7t_aaN-1">
          <mxGeometry x="305" y="231" width="8" height="8" as="geometry" />
        </mxCell>
      </root>
    </mxGraphModel>
  </diagram>
  <diagram id="PDn1eb1GthdbNhJQ88oZ" name="Page-3">
    <mxGraphModel dx="1422" dy="705" grid="1" gridSize="10" guides="1" tooltips="1" connect="1" arrows="1" fold="1" page="1" pageScale="1" pageWidth="827" pageHeight="1169" math="0" shadow="0">
      <root>
        <mxCell id="GslEfztRqiQMkviZKMj5-0" />
        <mxCell id="GslEfztRqiQMkviZKMj5-1" parent="GslEfztRqiQMkviZKMj5-0" />
      </root>
    </mxGraphModel>
  </diagram>
</mxfile>
